<svg width="218" height="46" viewBox="0 0 218 46" fill="none" xmlns="http://www.w3.org/2000/svg">
	<g clip-path="url(#clip0_0_1)">
		<path d="M82.2858 36.5545H78.8873C78.2544 36.5545 78 36.2948 78 35.6693V11.4752C78 10.5901 78.2603 10.1475 78.8193 10.1475C79.2689 10.1475 79.6416 10.4101 80.3485 11.2658L90.9373 23.2389L101.411 11.2658C102.195 10.4101 102.493 10.1475 102.94 10.1475C103.537 10.1475 103.759 10.5901 103.759 11.4752V35.6693C103.759 36.3007 103.499 36.5545 102.872 36.5545H99.4734C98.8404 36.5545 98.5417 36.2948 98.5417 35.6693V21.6397L92.2417 29.1133C91.5318 29.8952 91.2715 30.1194 90.8604 30.1194C90.5261 30.1194 90.1535 29.8952 89.5205 29.1133L83.2205 21.6397V35.6693C83.2205 36.2919 82.9217 36.5545 82.2858 36.5545Z" fill="#0A0A0A" />
		<path d="M135.781 23.4985C135.893 31.1964 129.818 37.1475 121.95 36.997C114.234 37.1092 108.194 31.2701 108.306 23.649C108.194 15.9511 114.272 9.92623 122.072 10.0738C129.854 9.96164 135.893 15.8744 135.781 23.4985ZM130.525 23.5723C130.525 18.4797 126.68 14.9096 122.024 14.9096C117.292 14.9096 113.562 18.5151 113.562 23.5723C113.562 28.6294 117.292 32.1641 121.989 32.1641C123.117 32.1681 124.236 31.9481 125.278 31.5167C126.321 31.0854 127.267 30.4515 128.061 29.6518C128.856 28.8522 129.483 27.9028 129.906 26.8591C130.329 25.8153 130.539 24.698 130.525 23.5723ZM124.748 23.5369C124.748 24.2521 124.464 24.938 123.957 25.4438C123.45 25.9495 122.762 26.2336 122.045 26.2336C121.328 26.2336 120.64 25.9495 120.133 25.4438C119.626 24.938 119.342 24.2521 119.342 23.5369C119.328 23.1783 119.388 22.8208 119.517 22.4859C119.647 22.151 119.842 21.8457 120.093 21.5884C120.344 21.3312 120.644 21.1272 120.976 20.989C121.308 20.8507 121.665 20.781 122.024 20.7841C122.389 20.7714 122.751 20.8342 123.09 20.9686C123.429 21.1029 123.736 21.3058 123.992 21.5645C124.248 21.8232 124.447 22.1321 124.577 22.4716C124.708 22.811 124.766 23.1738 124.748 23.5369Z" fill="#0A0A0A" />
		<path d="M144.65 10.5193C145.283 10.5193 145.538 10.7819 145.538 11.4044V26.2513L159.735 11.2658C160.516 10.3806 161.039 10.0856 161.524 10.0856C162.083 10.0856 162.344 10.5311 162.344 11.4251V35.6693C162.344 36.3007 162.083 36.5545 161.456 36.5545H158.07C157.437 36.5545 157.138 36.2948 157.138 35.6693V20.8224L142.941 35.808C142.157 36.6932 141.636 36.9882 141.19 36.9882C140.598 36.9882 140.332 36.5427 140.332 35.6516V11.4133C140.332 10.7819 140.628 10.5281 141.264 10.5281L144.65 10.5193Z" fill="#0A0A0A" />
		<path d="M165.487 35.3241L176.895 11.9326C177.602 10.4573 178.013 10 178.646 10C179.279 10 179.69 10.4455 180.436 11.9326L191.844 35.3241C191.939 35.5367 192.002 35.7625 192.03 35.9939C192.03 36.3656 191.77 36.5515 191.208 36.5515H166.159C165.6 36.5515 165.301 36.3656 165.301 35.9939C165.329 35.7625 165.391 35.5367 165.487 35.3241ZM172.719 31.7186H184.426L178.563 19.0374L172.719 31.7186Z" fill="#0A0A0A" />
		<path d="M203.832 10.4721C212.705 10.4721 217.999 15.488 217.999 23.1917C217.999 31.2997 212.48 36.5043 203.234 36.5043H195.296C194.663 36.5043 194.408 36.2447 194.408 35.6192V11.3661C194.408 10.7347 194.671 10.481 195.296 10.481L203.832 10.4721ZM199.62 31.1875C199.62 31.521 199.768 31.6714 200.105 31.6714H203.234C209.238 31.6714 212.593 28.5085 212.593 23.3776C212.593 18.4325 209.238 15.308 203.385 15.308H200.105C199.768 15.308 199.62 15.4555 199.62 15.7919V31.1875Z" fill="#0A0A0A" />
	</g>
	<g clip-path="url(#clip1_0_1)">
		<path d="M13.0433 21.3708H11.5982C11.3279 21.3708 11.2148 21.2597 11.2148 20.9875V10.6662C11.2148 10.2829 11.326 10.0912 11.5656 10.0912C11.7573 10.0912 11.9144 10.2024 12.2153 10.5685L16.7291 15.686L21.1911 10.5723C21.5246 10.2062 21.6511 10.0951 21.8428 10.0951C22.0958 10.0951 22.1916 10.2867 22.1916 10.6701V20.9932C22.1916 21.2635 22.0804 21.3766 21.8083 21.3766H20.3631C20.0928 21.3766 19.9663 21.2654 19.9663 20.9932V15.0017L17.283 18.1949C16.9802 18.5284 16.869 18.6242 16.6946 18.6242C16.5508 18.6242 16.3937 18.5284 16.1196 18.1949L13.4363 15.0017V20.9894C13.4401 21.2597 13.3136 21.3708 13.0433 21.3708Z" fill="#0A0A0A" />
		<path d="M35.5029 15.7167C35.5489 18.9597 32.9959 21.4667 29.6896 21.4034C26.4504 21.4552 23.907 18.9942 23.9588 15.7818C23.9397 15.0204 24.0767 14.2632 24.3613 13.5567C24.6459 12.8502 25.072 12.2095 25.6135 11.6739C26.1551 11.1383 26.8005 10.7192 27.51 10.4424C28.2196 10.1656 28.9783 10.037 29.7394 10.0644C33.0112 10.0165 35.5489 12.5082 35.5029 15.7167ZM33.2929 15.7473C33.2929 13.6007 31.6791 12.0961 29.7203 12.0961C27.7308 12.0961 26.1629 13.616 26.1629 15.7473C26.1629 17.8787 27.7308 19.366 29.7049 19.366C30.1789 19.3678 30.6485 19.2753 31.0864 19.094C31.5243 18.9126 31.9217 18.646 32.2556 18.3096C32.5895 17.9732 32.8531 17.5738 33.0312 17.1346C33.2093 16.6954 33.2983 16.2251 33.2929 15.7512V15.7473ZM30.8588 15.7358C30.8561 15.9595 30.7876 16.1773 30.6617 16.3622C30.5357 16.547 30.3581 16.6906 30.151 16.775C29.9439 16.8593 29.7164 16.8807 29.4972 16.8364C29.278 16.7921 29.0767 16.6842 28.9186 16.526C28.7604 16.3679 28.6525 16.1666 28.6082 15.9474C28.5639 15.7282 28.5853 15.5008 28.6696 15.2936C28.754 15.0865 28.8976 14.9089 29.0824 14.783C29.2673 14.6571 29.4852 14.5885 29.7088 14.5858C29.8612 14.5805 30.0132 14.6066 30.1551 14.6625C30.2971 14.7184 30.426 14.8029 30.5339 14.9107C30.6417 15.0186 30.7263 15.1475 30.7822 15.2895C30.8381 15.4314 30.8641 15.5834 30.8588 15.7358Z" fill="#0A0A0A" />
		<path d="M12.9398 24.8247C13.2484 24.8247 13.3749 24.9339 13.3749 25.208V31.4333L20.4857 25.1428C20.7483 24.9033 21.3195 24.5678 21.7392 24.6445C22.0056 24.6867 22.1379 24.8362 22.1379 25.2061V35.3817C22.1379 35.6462 22.0114 35.765 21.7028 35.765H20.2385C19.9299 35.765 19.7861 35.6558 19.7861 35.3817V28.9858L12.4836 35.4373C12.3725 35.5293 11.8492 35.9375 11.6307 35.9375C11.3394 35.9375 11.2129 35.7458 11.2129 35.3759V25.2003C11.2129 24.9339 11.3586 24.817 11.6671 24.817L12.9398 24.8247Z" fill="#0A0A0A" />
		<path d="M23.9456 35.2897L28.9423 25.4917C29.2528 24.8668 29.4311 24.6809 29.709 24.6809C29.9869 24.6809 30.1651 24.8726 30.491 25.4917L35.4743 35.2992C35.5165 35.3875 35.5443 35.482 35.5567 35.5791C35.5567 35.7343 35.4417 35.8129 35.1983 35.8129H24.2388C23.9935 35.8129 23.8555 35.7343 23.8555 35.5791C23.8693 35.4783 23.8997 35.3805 23.9456 35.2897ZM27.1081 33.7774H32.2275L29.6687 28.4606L27.1081 33.7774Z" fill="#0A0A0A" />
		<path d="M23 46C18.451 46 14.0042 44.651 10.2219 42.1237C6.43956 39.5965 3.4916 36.0044 1.75078 31.8017C0.00996558 27.599 -0.445511 22.9744 0.441949 18.5129C1.32941 14.0513 3.51995 9.9531 6.73655 6.73649C9.95316 3.51989 14.0514 1.32935 18.5129 0.441888C22.9745 -0.445572 27.599 0.00990454 31.8017 1.75072C36.0044 3.49154 39.5965 6.4395 42.1238 10.2218C44.6511 14.0042 46 18.451 46 22.9999C45.9934 29.0979 43.5681 34.9442 39.2562 39.2561C34.9443 43.568 29.098 45.9934 23 46ZM23 1.91662C18.8301 1.91662 14.7539 3.15313 11.2867 5.4698C7.8196 7.78646 5.1173 11.0792 3.52155 14.9317C1.9258 18.7842 1.50828 23.0233 2.32179 27.1131C3.13529 31.2029 5.14329 34.9596 8.09184 37.9081C11.0404 40.8567 14.7971 42.8647 18.8869 43.6782C22.9766 44.4917 27.2158 44.0742 31.0683 42.4784C34.9207 40.8827 38.2135 38.1804 40.5302 34.7132C42.8468 31.2461 44.0833 27.1698 44.0833 22.9999C44.0768 17.4103 41.8534 12.0515 37.9009 8.09906C33.9484 4.1466 28.5896 1.92321 23 1.91662Z" fill="#0A0A0A" />
		<path d="M39.5999 22.1375H6.39936C6.19929 22.1375 6.03711 22.2997 6.03711 22.4998V23.5003C6.03711 23.7003 6.19929 23.8625 6.39936 23.8625H39.5999C39.7999 23.8625 39.9621 23.7003 39.9621 23.5003V22.4998C39.9621 22.2997 39.7999 22.1375 39.5999 22.1375Z" fill="#0A0A0A" />
	</g>
	<defs>
		<clipPath id="clip0_0_1">
			<rect width="140" height="27" fill="white" transform="translate(78 10)" />
		</clipPath>
		<clipPath id="clip1_0_1">
			<rect width="46" height="46" fill="white" />
		</clipPath>
	</defs>
</svg>
